# Blender v2.91.2 OBJ File: ''
# www.blender.org
mtllib clam.mtl
o Cube.001
v 0.037578 -0.520794 -0.005694
v 0.249736 -0.463938 -0.005693
v 0.313029 -0.367083 -0.005693
v 0.313029 -0.250467 -0.003497
v 0.277252 -0.227789 -0.006980
v 0.252885 -0.221392 -0.006980
v 0.095785 -0.201584 -0.006980
v 0.021581 -0.470772 -0.024560
v 0.024834 -0.480943 -0.020518
v 0.189206 -0.425850 -0.024560
v 0.201514 -0.433594 -0.020518
v 0.234111 -0.357133 -0.024560
v 0.250158 -0.359156 -0.020518
v 0.234111 -0.271187 -0.024560
v 0.250158 -0.266974 -0.020518
v 0.232549 -0.270196 -0.024560
v 0.241638 -0.261574 -0.020518
v 0.229866 -0.269492 -0.024560
v 0.234546 -0.259712 -0.020518
v 0.099634 -0.253072 -0.024560
v 0.098851 -0.242603 -0.020518
v 0.037578 -0.533268 -0.008052
v 0.037578 -0.533268 -0.022320
v 0.024834 -0.493417 -0.037144
v -0.037578 -0.520794 -0.005694
v -0.249737 -0.463938 -0.005694
v -0.313029 -0.367083 -0.005694
v -0.313029 -0.250467 -0.003497
v -0.277252 -0.227789 -0.006980
v -0.252885 -0.221392 -0.006980
v -0.095785 -0.201584 -0.006980
v -0.021581 -0.470772 -0.024560
v -0.024834 -0.480943 -0.020518
v -0.189206 -0.425850 -0.024560
v -0.201514 -0.433594 -0.020518
v -0.234111 -0.357133 -0.024560
v -0.250158 -0.359156 -0.020518
v -0.234111 -0.271187 -0.024560
v -0.250158 -0.266974 -0.020518
v -0.232548 -0.270196 -0.024560
v -0.241638 -0.261574 -0.020518
v -0.229866 -0.269492 -0.024560
v -0.234546 -0.259712 -0.020518
v -0.099634 -0.253072 -0.024560
v -0.098851 -0.242603 -0.020518
v -0.037578 -0.533268 -0.008052
v -0.037578 -0.533268 -0.022320
v -0.024834 -0.493417 -0.037144
v 0.000000 -0.219771 -0.006980
v -0.000000 -0.470772 -0.024560
v -0.000000 -0.480943 -0.020518
v 0.000000 -0.271990 -0.024560
v 0.000000 -0.261372 -0.020518
v -0.000000 -0.533268 -0.008052
v -0.000000 -0.533268 -0.022320
v -0.000000 -0.493417 -0.037144
v 0.037578 -0.520794 0.005694
v 0.249736 -0.463938 0.005694
v 0.313029 -0.367083 0.005694
v 0.313029 -0.250467 0.003497
v 0.277252 -0.227789 0.006980
v 0.252885 -0.221392 0.006980
v 0.095785 -0.201584 0.006980
v 0.021581 -0.470772 0.024560
v 0.024834 -0.480943 0.020518
v 0.189206 -0.425850 0.024560
v 0.201514 -0.433594 0.020518
v 0.234111 -0.357133 0.024560
v 0.250158 -0.359156 0.020518
v 0.234111 -0.271187 0.024560
v 0.250158 -0.266974 0.020518
v 0.232549 -0.270196 0.024560
v 0.241638 -0.261574 0.020518
v 0.229866 -0.269492 0.024560
v 0.234546 -0.259712 0.020518
v 0.099634 -0.253072 0.024560
v 0.098851 -0.242603 0.020518
v 0.037578 -0.533268 0.008052
v 0.037578 -0.533268 0.022320
v 0.024834 -0.493417 0.037144
v -0.037578 -0.520794 0.005694
v -0.249737 -0.463938 0.005693
v -0.313029 -0.367083 0.005693
v -0.313029 -0.250467 0.003497
v -0.277252 -0.227789 0.006980
v -0.252885 -0.221392 0.006980
v -0.095785 -0.201584 0.006980
v -0.021581 -0.470772 0.024560
v -0.024834 -0.480943 0.020518
v -0.189206 -0.425850 0.024560
v -0.201514 -0.433594 0.020518
v -0.234111 -0.357133 0.024560
v -0.250158 -0.359156 0.020518
v -0.234111 -0.271187 0.024560
v -0.250158 -0.266974 0.020518
v -0.232548 -0.270196 0.024560
v -0.241638 -0.261574 0.020518
v -0.229866 -0.269492 0.024560
v -0.234546 -0.259712 0.020518
v -0.099634 -0.253072 0.024560
v -0.098851 -0.242603 0.020518
v -0.037578 -0.533268 0.008052
v -0.037578 -0.533268 0.022320
v -0.024834 -0.493417 0.037144
v 0.000000 -0.219771 0.006980
v -0.000000 -0.470772 0.024560
v -0.000000 -0.480943 0.020518
v 0.000000 -0.271990 0.024560
v 0.000000 -0.261372 0.020518
v -0.000000 -0.533268 0.008052
v -0.000000 -0.533268 0.022320
v -0.000000 -0.493417 0.037144
v 0.037578 -0.520794 0.000000
v 0.095785 -0.201584 -0.000000
v 0.249736 -0.463938 0.000000
v 0.313029 -0.367083 0.000000
v 0.313029 -0.250467 0.000000
v 0.277252 -0.227789 0.000000
v 0.252885 -0.221392 0.000000
v 0.037578 -0.527227 0.000000
v 0.000000 -0.219771 -0.000000
v -0.000000 -0.527227 0.000000
v -0.037578 -0.520794 0.000000
v -0.095785 -0.201584 -0.000000
v -0.249737 -0.463938 -0.000000
v -0.313029 -0.367083 -0.000000
v -0.313029 -0.250467 -0.000000
v -0.277252 -0.227789 -0.000000
v -0.252885 -0.221392 -0.000000
v -0.037578 -0.527227 0.000000
vt 0.750000 0.528514
vt 0.750000 0.500000
vt 0.711751 0.500000
vt 0.710526 0.524850
vt 0.509335 0.604263
vt 0.509335 0.690555
vt 0.598536 0.690555
vt 0.598536 0.604263
vt 0.519374 0.530796
vt 0.598536 0.530796
vt 0.505887 0.375000
vt 0.505887 0.413249
vt 0.598536 0.413249
vt 0.598536 0.375000
vt 0.505887 0.488462
vt 0.505887 0.502222
vt 0.598536 0.502222
vt 0.598536 0.488462
vt 0.648749 0.541836
vt 0.648748 0.600705
vt 0.650106 0.600705
vt 0.625000 0.604263
vt 0.650274 0.665280
vt 0.669531 0.651689
vt 0.653508 0.538433
vt 0.639287 0.516509
vt 0.625000 0.530796
vt 0.650106 0.541836
vt 0.656340 0.537272
vt 0.649017 0.512479
vt 0.734994 0.750000
vt 0.740083 0.710692
vt 0.250000 0.750000
vt 0.250000 0.750000
vt 0.265006 0.750000
vt 0.265006 0.750000
vt 0.656514 0.599853
vt 0.674446 0.647668
vt 0.741382 0.700982
vt 0.656514 0.544674
vt 0.657138 0.544044
vt 0.710214 0.531463
vt 0.658209 0.543597
vt 0.750000 0.536113
vt 0.509335 0.859994
vt 0.375000 0.859994
vt 0.375000 0.859994
vt 0.598536 0.859994
vt 0.598536 0.859994
vt 0.734994 0.750000
vt 0.740083 0.710692
vt 0.750000 0.750000
vt 0.750000 0.710691
vt 0.375000 0.875000
vt 0.598536 0.875000
vt 0.750000 0.710691
vt 0.750000 0.700966
vt 0.710526 0.524850
vt 0.711751 0.500000
vt 0.509335 0.604263
vt 0.598536 0.604263
vt 0.598536 0.690555
vt 0.509335 0.690555
vt 0.519374 0.530796
vt 0.598536 0.530796
vt 0.598536 0.413249
vt 0.505887 0.413249
vt 0.505887 0.488462
vt 0.598536 0.488462
vt 0.598536 0.502222
vt 0.505887 0.502222
vt 0.648749 0.541836
vt 0.648748 0.600705
vt 0.650106 0.600705
vt 0.669531 0.651689
vt 0.650274 0.665280
vt 0.625000 0.604263
vt 0.653508 0.538433
vt 0.650106 0.541836
vt 0.625000 0.530796
vt 0.639287 0.516509
vt 0.656340 0.537272
vt 0.649017 0.512479
vt 0.740083 0.710692
vt 0.734994 0.750000
vt 0.265006 0.750000
vt 0.265006 0.750000
vt 0.656514 0.599853
vt 0.674446 0.647668
vt 0.741382 0.700982
vt 0.656514 0.544674
vt 0.657138 0.544044
vt 0.710214 0.531463
vt 0.658209 0.543597
vt 0.375000 0.859994
vt 0.509335 0.859994
vt 0.598536 0.859994
vt 0.598536 0.859994
vt 0.375000 0.859994
vt 0.740083 0.710692
vt 0.734994 0.750000
vt 0.750000 0.528514
vt 0.710526 0.524850
vt 0.711751 0.500000
vt 0.750000 0.500000
vt 0.598536 0.604263
vt 0.598536 0.690555
vt 0.598536 0.530796
vt 0.598536 0.375000
vt 0.598536 0.413249
vt 0.598536 0.488462
vt 0.598536 0.502222
vt 0.648749 0.541836
vt 0.648748 0.600705
vt 0.650106 0.600705
vt 0.669531 0.651689
vt 0.650274 0.665280
vt 0.625000 0.604263
vt 0.653508 0.538433
vt 0.650106 0.541836
vt 0.625000 0.530796
vt 0.639287 0.516509
vt 0.656340 0.537272
vt 0.649017 0.512479
vt 0.740083 0.710692
vt 0.734994 0.750000
vt 0.265006 0.750000
vt 0.250000 0.750000
vt 0.656514 0.599853
vt 0.674446 0.647668
vt 0.741382 0.700982
vt 0.656514 0.544674
vt 0.657138 0.544044
vt 0.710214 0.531463
vt 0.658209 0.543597
vt 0.750000 0.536113
vt 0.598536 0.859994
vt 0.598536 0.859994
vt 0.375000 0.859994
vt 0.740083 0.710692
vt 0.734994 0.750000
vt 0.750000 0.710691
vt 0.750000 0.750000
vt 0.598536 0.875000
vt 0.375000 0.875000
vt 0.750000 0.710691
vt 0.750000 0.700966
vt 0.711751 0.500000
vt 0.710526 0.524850
vt 0.598536 0.690555
vt 0.598536 0.604263
vt 0.598536 0.530796
vt 0.598536 0.413249
vt 0.598536 0.502222
vt 0.598536 0.488462
vt 0.648749 0.541836
vt 0.648748 0.600705
vt 0.650106 0.600705
vt 0.625000 0.604263
vt 0.650274 0.665280
vt 0.669531 0.651689
vt 0.653508 0.538433
vt 0.639287 0.516509
vt 0.625000 0.530796
vt 0.650106 0.541836
vt 0.656340 0.537272
vt 0.649017 0.512479
vt 0.734994 0.750000
vt 0.740083 0.710692
vt 0.265006 0.750000
vt 0.656514 0.599853
vt 0.674446 0.647668
vt 0.741382 0.700982
vt 0.656514 0.544674
vt 0.657138 0.544044
vt 0.710214 0.531463
vt 0.658209 0.543597
vt 0.375000 0.859994
vt 0.598536 0.859994
vt 0.598536 0.859994
vt 0.734994 0.750000
vt 0.740083 0.710692
vn -0.0587 0.3089 -0.9493
vn 0.8371 -0.5470 0.0000
vn 1.0000 -0.0000 0.0000
vn -0.1865 0.9824 0.0000
vn 0.2539 0.9672 0.0000
vn 0.1251 0.9921 0.0000
vn 0.2448 0.0102 -0.9695
vn 0.2108 -0.1378 -0.9678
vn 0.1988 0.1944 -0.9606
vn 0.0784 0.2985 -0.9512
vn 0.0398 0.3158 -0.9480
vn 0.0865 -0.3229 -0.9425
vn -0.0000 -0.7999 0.6001
vn 0.2243 -0.1465 -0.9634
vn 0.0917 -0.3423 -0.9351
vn 0.2443 -0.0000 -0.9697
vn 0.1690 0.2667 -0.9488
vn 0.0457 0.3628 -0.9307
vn 0.0901 0.3433 -0.9349
vn -0.0674 0.3550 -0.9324
vn 0.9545 0.2386 -0.1790
vn 0.0000 -0.3486 -0.9373
vn 0.0000 -1.0000 -0.0000
vn 0.0000 0.7999 -0.6001
vn 0.0000 -0.0000 -1.0000
vn 0.0000 -0.3694 -0.9293
vn 0.0587 0.3089 -0.9493
vn -0.8371 -0.5470 0.0000
vn -1.0000 0.0000 0.0000
vn 0.1865 0.9824 0.0000
vn -0.2539 0.9672 0.0000
vn -0.1251 0.9921 0.0000
vn -0.2448 0.0102 -0.9695
vn -0.2108 -0.1378 -0.9678
vn -0.1988 0.1944 -0.9606
vn -0.0784 0.2985 -0.9512
vn -0.0398 0.3158 -0.9480
vn -0.0865 -0.3229 -0.9425
vn -0.2243 -0.1465 -0.9634
vn -0.0917 -0.3423 -0.9351
vn -0.2443 -0.0000 -0.9697
vn -0.1690 0.2667 -0.9488
vn -0.0457 0.3628 -0.9307
vn -0.0901 0.3433 -0.9349
vn 0.0674 0.3550 -0.9324
vn -0.9545 0.2386 -0.1790
vn -0.5354 0.8446 0.0000
vn -0.2589 -0.9659 0.0000
vn 0.5354 0.8446 0.0000
vn 0.2589 -0.9659 0.0000
vn -0.0587 0.3089 0.9493
vn 0.2448 0.0102 0.9695
vn 0.2108 -0.1378 0.9678
vn 0.1988 0.1944 0.9606
vn 0.0784 0.2985 0.9512
vn 0.0398 0.3158 0.9480
vn 0.0865 -0.3229 0.9425
vn 0.0000 -0.7999 -0.6001
vn 0.2243 -0.1465 0.9634
vn 0.0917 -0.3423 0.9351
vn 0.2443 0.0000 0.9697
vn 0.1690 0.2667 0.9488
vn 0.0457 0.3628 0.9307
vn 0.0901 0.3433 0.9349
vn -0.0674 0.3550 0.9324
vn 0.9545 0.2386 0.1790
vn -0.0000 -0.3486 0.9373
vn -0.0000 0.7999 0.6001
vn -0.0000 0.0000 1.0000
vn -0.0000 -0.3694 0.9293
vn 0.0587 0.3089 0.9493
vn -0.2448 0.0102 0.9695
vn -0.2108 -0.1378 0.9678
vn -0.1988 0.1944 0.9606
vn -0.0784 0.2985 0.9512
vn -0.0398 0.3158 0.9480
vn -0.0865 -0.3229 0.9425
vn -0.2243 -0.1465 0.9634
vn -0.0917 -0.3423 0.9351
vn -0.2443 0.0000 0.9697
vn -0.1690 0.2667 0.9488
vn -0.0457 0.3628 0.9307
vn -0.0901 0.3433 0.9349
vn 0.0674 0.3550 0.9324
vn -0.9545 0.2386 0.1790
usemtl None
s off
f 53/1/1 49/2/1 7/3/1 21/4/1
f 116/5/2 115/6/2 2/7/2 3/8/2
f 117/9/3 116/5/3 3/8/3 4/10/3
f 121/11/4 114/12/4 7/13/4 49/14/4
f 119/15/5 118/16/5 5/17/5 6/18/5
f 114/12/6 119/15/6 6/18/6 7/13/6
f 15/19/7 4/10/7 3/8/7 13/20/7
f 13/21/8 3/22/8 2/23/8 11/24/8
f 17/25/9 5/26/9 4/27/9 15/28/9
f 19/29/10 6/30/10 5/26/10 17/25/10
f 21/4/11 7/3/11 6/30/11 19/29/11
f 11/24/12 2/23/12 1/31/12 9/32/12
f 122/33/13 54/34/13 22/35/13 120/36/13
f 12/37/14 13/21/14 11/24/14 10/38/14
f 10/38/15 11/24/15 9/32/15 8/39/15
f 14/40/16 15/19/16 13/20/16 12/37/16
f 16/41/17 17/25/17 15/28/17 14/40/17
f 20/42/18 21/4/18 19/29/18 18/43/18
f 18/43/19 19/29/19 17/25/19 16/41/19
f 52/44/20 53/1/20 21/4/20 20/42/20
f 113/45/3 120/46/3 22/47/3 23/48/3 1/49/3
f 1/31/21 23/50/21 24/51/21 9/32/21
f 24/51/22 23/50/22 55/52/22 56/53/22
f 22/47/23 54/54/23 55/55/23 23/48/23
f 9/32/24 24/51/24 56/53/24 51/56/24
f 14/40/25 12/37/25 10/38/25 8/39/25 50/57/25 52/44/25 20/42/25 18/43/25 16/41/25
f 8/39/26 9/32/26 51/56/26 50/57/26
f 53/1/27 45/58/27 31/59/27 49/2/27
f 126/60/28 27/61/28 26/62/28 125/63/28
f 127/64/29 28/65/29 27/61/29 126/60/29
f 121/11/30 49/14/30 31/66/30 124/67/30
f 129/68/31 30/69/31 29/70/31 128/71/31
f 124/67/32 31/66/32 30/69/32 129/68/32
f 39/72/33 37/73/33 27/61/33 28/65/33
f 37/74/34 35/75/34 26/76/34 27/77/34
f 41/78/35 39/79/35 28/80/35 29/81/35
f 43/82/36 41/78/36 29/81/36 30/83/36
f 45/58/37 43/82/37 30/83/37 31/59/37
f 35/75/38 33/84/38 25/85/38 26/76/38
f 122/33/13 130/86/13 46/87/13 54/34/13
f 36/88/39 34/89/39 35/75/39 37/74/39
f 34/89/40 32/90/40 33/84/40 35/75/40
f 38/91/41 36/88/41 37/73/41 39/72/41
f 40/92/42 38/91/42 39/79/42 41/78/42
f 44/93/43 42/94/43 43/82/43 45/58/43
f 42/94/44 40/92/44 41/78/44 43/82/44
f 52/44/45 44/93/45 45/58/45 53/1/45
f 130/95/29 123/96/29 25/97/29 47/98/29 46/99/29
f 25/85/46 33/84/46 48/100/46 47/101/46
f 48/100/22 56/53/22 55/52/22 47/101/22
f 46/99/23 47/98/23 55/55/23 54/54/23
f 33/84/24 51/56/24 56/53/24 48/100/24
f 38/91/25 40/92/25 42/94/25 44/93/25 52/44/25 50/57/25 32/90/25 34/89/25 36/88/25
f 32/90/26 50/57/26 51/56/26 33/84/26
f 28/65/47 127/64/47 128/71/47 29/70/47
f 25/97/48 123/96/48 125/63/48 26/62/48
f 4/10/49 5/17/49 118/16/49 117/9/49
f 1/49/50 2/7/50 115/6/50 113/45/50
f 109/102/51 77/103/51 63/104/51 105/105/51
f 116/5/2 59/106/2 58/107/2 115/6/2
f 117/9/3 60/108/3 59/106/3 116/5/3
f 121/11/4 105/109/4 63/110/4 114/12/4
f 119/15/5 62/111/5 61/112/5 118/16/5
f 114/12/6 63/110/6 62/111/6 119/15/6
f 71/113/52 69/114/52 59/106/52 60/108/52
f 69/115/53 67/116/53 58/117/53 59/118/53
f 73/119/54 71/120/54 60/121/54 61/122/54
f 75/123/55 73/119/55 61/122/55 62/124/55
f 77/103/56 75/123/56 62/124/56 63/104/56
f 67/116/57 65/125/57 57/126/57 58/117/57
f 122/33/58 120/36/58 78/127/58 110/128/58
f 68/129/59 66/130/59 67/116/59 69/115/59
f 66/130/60 64/131/60 65/125/60 67/116/60
f 70/132/61 68/129/61 69/114/61 71/113/61
f 72/133/62 70/132/62 71/120/62 73/119/62
f 76/134/63 74/135/63 75/123/63 77/103/63
f 74/135/64 72/133/64 73/119/64 75/123/64
f 108/136/65 76/134/65 77/103/65 109/102/65
f 113/45/3 57/137/3 79/138/3 78/139/3 120/46/3
f 57/126/66 65/125/66 80/140/66 79/141/66
f 80/140/67 112/142/67 111/143/67 79/141/67
f 78/139/23 79/138/23 111/144/23 110/145/23
f 65/125/68 107/146/68 112/142/68 80/140/68
f 70/132/69 72/133/69 74/135/69 76/134/69 108/136/69 106/147/69 64/131/69 66/130/69 68/129/69
f 64/131/70 106/147/70 107/146/70 65/125/70
f 109/102/71 105/105/71 87/148/71 101/149/71
f 126/60/28 125/63/28 82/150/28 83/151/28
f 127/64/29 126/60/29 83/151/29 84/152/29
f 121/11/30 124/67/30 87/153/30 105/109/30
f 129/68/31 128/71/31 85/154/31 86/155/31
f 124/67/32 129/68/32 86/155/32 87/153/32
f 95/156/72 84/152/72 83/151/72 93/157/72
f 93/158/73 83/159/73 82/160/73 91/161/73
f 97/162/74 85/163/74 84/164/74 95/165/74
f 99/166/75 86/167/75 85/163/75 97/162/75
f 101/149/76 87/148/76 86/167/76 99/166/76
f 91/161/77 82/160/77 81/168/77 89/169/77
f 122/33/58 110/128/58 102/170/58 130/86/58
f 92/171/78 93/158/78 91/161/78 90/172/78
f 90/172/79 91/161/79 89/169/79 88/173/79
f 94/174/80 95/156/80 93/157/80 92/171/80
f 96/175/81 97/162/81 95/165/81 94/174/81
f 100/176/82 101/149/82 99/166/82 98/177/82
f 98/177/83 99/166/83 97/162/83 96/175/83
f 108/136/84 109/102/84 101/149/84 100/176/84
f 130/95/29 102/178/29 103/179/29 81/180/29 123/96/29
f 81/168/85 103/181/85 104/182/85 89/169/85
f 104/182/67 103/181/67 111/143/67 112/142/67
f 102/178/23 110/145/23 111/144/23 103/179/23
f 89/169/68 104/182/68 112/142/68 107/146/68
f 94/174/69 92/171/69 90/172/69 88/173/69 106/147/69 108/136/69 100/176/69 98/177/69 96/175/69
f 88/173/70 89/169/70 107/146/70 106/147/70
f 84/152/47 85/154/47 128/71/47 127/64/47
f 81/180/48 82/150/48 125/63/48 123/96/48
f 60/108/49 117/9/49 118/16/49 61/112/49
f 57/137/50 113/45/50 115/6/50 58/107/50
