# Blender v2.91.2 OBJ File: 'massdecomp.blend'
# www.blender.org
mtllib massdecomp_buried.mtl
o Cube.002_Cube.003
v 0.136918 0.294037 -0.004192
v 0.112790 0.316763 0.017946
v 0.144108 0.207155 -0.303099
v 0.121281 0.214170 -0.335012
v 0.407121 0.147336 0.044949
v 0.431854 0.143535 0.075973
v 0.414311 0.060454 -0.253958
v 0.440344 0.040941 -0.276985
v -0.029044 0.077662 0.084033
v -0.004916 0.054936 0.061895
v 0.002274 -0.031947 -0.237012
v -0.020553 -0.024932 -0.268925
v 0.272477 -0.178648 -0.187871
v 0.298510 -0.198160 -0.210897
v 0.265287 -0.091765 0.111036
v 0.290020 -0.095567 0.142060
v 0.123167 0.334256 0.013111
v 0.131658 0.231663 -0.339847
v 0.442230 0.161028 0.071138
v 0.450721 0.058434 -0.281820
v 0.151059 0.320474 -0.010335
v 0.158302 0.232948 -0.311457
v 0.423264 0.172686 0.039170
v 0.430507 0.085160 -0.261951
v 0.183690 0.310759 -0.036664
v 0.189607 0.239272 -0.282604
v 0.406013 0.190054 0.003770
v 0.411930 0.118566 -0.242171
v 0.223598 0.283591 -0.071491
v 0.212008 0.303418 -0.059325
v 0.227578 0.235508 -0.236913
v 0.216795 0.245579 -0.258308
v 0.373135 0.202403 -0.044295
v 0.391883 0.205758 -0.026611
v 0.377115 0.154320 -0.209717
v 0.396670 0.147920 -0.225594
v -0.451395 -0.409980 0.397143
v -0.553429 -0.641605 -0.284023
v 0.019270 -0.665517 0.482742
v 0.068097 -0.979049 -0.170988
v -0.112256 0.046288 0.189930
v -0.032539 0.004313 0.074068
v -0.157965 0.056684 0.129443
v -0.179119 0.042117 0.239740
v -0.224827 0.052513 0.179253
v -0.259059 -0.085743 0.307525
v -0.025432 -0.081565 -0.221379
v -0.099386 -0.109227 -0.345098
v -0.147593 -0.068633 -0.301692
v -0.164022 -0.140297 -0.387828
v -0.274807 -0.171909 -0.413847
v -0.212230 -0.099703 -0.344422
v 0.234537 -0.140690 0.122641
v 0.277477 -0.165309 0.260810
v 0.325685 -0.205903 0.217404
v 0.294268 -0.214898 0.325834
v 0.211606 -0.341281 0.393123
v 0.342475 -0.255492 0.282427
v 0.241644 -0.226568 -0.172807
v 0.336056 -0.331220 -0.213731
v 0.290348 -0.320825 -0.274218
v 0.355073 -0.407708 -0.241248
v 0.346719 -0.509353 -0.300811
v 0.309364 -0.397312 -0.301734
v -0.569968 -0.441756 0.403527
v 0.051557 -0.779200 0.516563
v -0.291346 0.027940 0.273704
v 0.330179 -0.309504 0.386739
v -0.440948 -0.536212 -0.037141
v 0.029717 -0.791750 0.048457
v -0.248612 -0.211976 -0.126760
v 0.222053 -0.467514 -0.041161
v -0.076513 0.041342 0.113663
v -0.067126 -0.072082 -0.276554
v 0.285618 -0.263597 -0.212401
v 0.276231 -0.150173 0.177816
v -0.046090 0.092630 0.099487
v -0.036703 -0.020794 -0.290730
v 0.316042 -0.212309 -0.226577
v 0.306655 -0.098885 0.163640
v -0.002115 0.055600 0.059892
v 0.004992 -0.030277 -0.235555
v 0.272067 -0.175280 -0.186983
v 0.264960 -0.089403 0.108465
vt 0.644142 0.519142
vt 0.644142 0.730858
vt 0.855858 0.730858
vt 0.855858 0.519142
vt 0.397440 0.250000
vt 0.397440 0.500000
vt 0.605858 0.500000
vt 0.605858 0.250000
vt 0.397440 0.750000
vt 0.397440 1.000000
vt 0.605858 1.000000
vt 0.605858 0.750000
vt 0.644142 0.730858
vt 0.855858 0.730858
vt 0.855858 0.519142
vt 0.605858 0.250000
vt 0.605858 0.000000
vt 0.605858 0.000000
vt 0.644142 0.519142
vt 0.397440 0.000000
vt 0.875000 0.750000
vt 0.875000 0.500000
vt 0.625000 0.500000
vt 0.605858 0.500000
vt 0.605858 0.750000
vt 0.625000 0.750000
vt 0.605858 1.000000
vt 0.143358 0.731642
vt 0.125000 0.750000
vt 0.375000 0.750000
vt 0.356642 0.731642
vt 0.360725 0.731642
vt 0.360725 0.518358
vt 0.356642 0.518358
vt 0.375000 0.500000
vt 0.125000 0.500000
vt 0.143358 0.518358
vt 0.162900 0.712100
vt 0.337100 0.712100
vt 0.337507 0.712100
vt 0.337507 0.537900
vt 0.337100 0.537900
vt 0.162900 0.537900
vt 0.179530 0.695470
vt 0.320470 0.695470
vt 0.320500 0.554530
vt 0.179530 0.554530
vt 0.191416 0.566416
vt 0.191416 0.683584
vt 0.308584 0.566416
vt 0.308584 0.683584
vt 0.375000 0.000000
vt 0.375000 0.250000
vt 0.570943 0.250000
vt 0.570943 0.000000
vt 0.405341 0.969659
vt 0.405341 0.969659
vt 0.405341 0.780341
vt 0.405341 0.780341
vt 0.125000 0.500000
vt 0.125000 0.750000
vt 0.375000 0.750000
vt 0.375000 0.500000
vt 0.641824 0.546618
vt 0.608176 0.529793
vt 0.608176 0.720207
vt 0.641824 0.703382
vt 0.696286 0.571286
vt 0.696286 0.678714
vt 0.803714 0.678714
vt 0.803714 0.571286
vt 0.570943 0.500000
vt 0.570943 0.750000
vt 0.847271 0.703382
vt 0.864095 0.720207
vt 0.864095 0.529793
vt 0.847271 0.546618
vt 0.828382 0.527729
vt 0.845207 0.510905
vt 0.654793 0.510905
vt 0.671618 0.527729
vt 0.828382 0.722271
vt 0.820943 0.695943
vt 0.854651 0.739095
vt 0.875000 0.750000
vt 0.857799 0.732799
vt 0.820943 0.554057
vt 0.857799 0.517201
vt 0.875000 0.500000
vt 0.679057 0.703654
vt 0.659025 0.715975
vt 0.659025 0.715975
vt 0.654793 0.739095
vt 0.642201 0.732799
vt 0.625000 0.750000
vt 0.679057 0.554057
vt 0.654416 0.534025
vt 0.654416 0.534025
vt 0.620768 0.517201
vt 0.586365 0.500000
vt 0.845207 0.739095
vt 0.659025 0.534025
vt 0.642201 0.517201
vt 0.625000 0.500000
vt 0.679057 0.695943
vt 0.671618 0.722271
vt 0.375000 1.000000
vt 0.540603 0.969659
vt 0.570943 1.000000
vt 0.540603 0.780341
vt 0.540603 0.969659
vt 0.540603 0.780341
vt 0.679057 0.554057
vt 0.820943 0.554057
vt 0.803714 0.571286
vt 0.696286 0.571286
vt 0.679057 0.695943
vt 0.696286 0.678714
vt 0.803714 0.678714
vt 0.820943 0.695943
vn -0.4964 -0.8367 0.2313
vn 0.0231 -0.2790 -0.9600
vn -0.0231 0.2790 0.9600
vn 0.8678 -0.4712 0.1578
vn -0.8678 0.4712 -0.1578
vn -0.5543 -0.8027 0.2200
vn -0.4936 -0.8538 0.1654
vn -0.4362 -0.8669 0.2415
vn -0.4968 -0.8158 0.2961
vn 0.4708 0.8812 0.0421
vn 0.7162 0.6746 -0.1789
vn 0.4835 0.7275 -0.4867
vn 0.2382 0.9341 -0.2658
vn 0.4351 0.8739 0.2167
vn 0.8287 0.5424 -0.1377
vn 0.4555 0.6273 -0.6317
vn 0.0618 0.9588 -0.2772
vn 0.4262 0.8691 0.2510
vn 0.8482 0.5138 -0.1289
vn 0.4481 0.6048 -0.6584
vn 0.0261 0.9601 -0.2784
vn 0.8131 0.5639 -0.1444
vn 0.4415 0.8769 0.1903
vn 0.0891 0.9570 -0.2760
vn 0.4607 0.6441 -0.6107
vn 0.4964 0.8367 -0.2313
vn -0.9646 -0.2585 0.0519
vn 0.2627 -0.9248 0.2751
vn -0.3673 -0.3944 0.8424
vn -0.1898 -0.9815 -0.0253
vn 0.0590 -0.9754 -0.2122
vn -0.2033 -0.8176 0.5388
vn 0.0370 -0.7091 0.7042
vn -0.6996 -0.7047 -0.1180
vn -0.7694 -0.5257 -0.3629
vn -0.7132 -0.5407 0.4460
vn -0.7914 -0.2593 0.5535
vn -0.0416 -0.9895 -0.1387
vn -0.1265 -0.9534 0.2741
vn -0.0604 -0.7616 0.6452
vn 0.6118 -0.7555 0.2343
vn -0.4674 -0.6663 0.5810
vn -0.7690 -0.3769 0.5163
vn -0.2113 -0.0624 0.9754
vn -0.7907 -0.5927 0.1533
vn -0.7501 -0.6048 -0.2675
vn -0.9917 0.1151 -0.0573
vn -0.4497 -0.8798 -0.1537
vn -0.1686 -0.5780 -0.7984
vn -0.3346 -0.7890 -0.5153
usemtl None
s off
f 7/1/1 5/2/1 1/3/1 3/4/1
f 18/5/2 20/6/2 8/7/2 4/8/2
f 19/9/3 17/10/3 2/11/3 6/12/3
f 20/6/4 19/9/4 6/12/4 8/7/4
f 5/2/2 15/13/2 10/14/2 1/3/2
f 1/3/4 10/14/4 11/15/4 3/4/4
f 4/8/5 12/16/5 9/17/5 2/18/5
f 7/1/5 13/19/5 15/13/5 5/2/5
f 17/20/5 18/5/5 4/8/5 2/18/5
f 10/14/6 9/21/6 12/22/6 11/15/6
f 11/15/7 12/22/7 14/23/7 13/19/7
f 13/19/8 14/24/8 16/25/8 15/13/8
f 15/13/9 16/26/9 9/21/9 10/14/9
f 8/7/2 14/24/2 12/16/2 4/8/2
f 3/4/3 11/15/3 13/19/3 7/1/3
f 2/11/3 9/27/3 16/25/3 6/12/3
f 6/12/4 16/25/4 14/24/4 8/7/4
f 21/28/10 17/29/10 19/30/10 23/31/10
f 23/32/11 19/9/11 20/6/11 24/33/11
f 24/34/12 20/35/12 18/36/12 22/37/12
f 22/37/13 18/36/13 17/29/13 21/28/13
f 25/38/14 21/28/14 23/31/14 27/39/14
f 27/40/15 23/32/15 24/33/15 28/41/15
f 28/42/16 24/34/16 22/37/16 26/43/16
f 26/43/17 22/37/17 21/28/17 25/38/17
f 30/44/18 25/38/18 27/39/18 34/45/18
f 34/45/19 27/40/19 28/41/19 36/46/19
f 36/46/20 28/42/20 26/43/20 32/47/20
f 32/47/21 26/43/21 25/38/21 30/44/21
f 31/48/22 32/47/22 30/44/22 29/49/22
f 35/50/23 36/46/23 32/47/23 31/48/23
f 33/51/24 34/45/24 36/46/24 35/50/24
f 29/49/25 30/44/25 34/45/25 33/51/25
f 31/48/26 29/49/26 33/51/26 35/50/26
f 65/52/4 38/53/4 51/54/4 67/55/4
f 37/56/1 69/57/1 70/58/1 39/59/1
f 38/60/26 65/61/26 66/62/26 40/63/26
f 60/64/27 62/65/27 58/66/27 55/67/27
f 59/68/1 53/69/1 42/70/1 47/71/1
f 38/53/3 40/63/3 63/72/3 51/54/3
f 40/63/5 66/62/5 68/73/5 63/72/5
f 43/74/28 45/75/28 52/76/28 49/77/28
f 48/78/29 50/79/29 64/80/29 61/81/29
f 41/82/30 43/74/30 73/83/30
f 44/84/31 67/85/31 45/86/31
f 74/87/32 49/77/32 48/78/32
f 50/79/33 52/88/33 51/89/33
f 76/90/34 55/91/34 54/92/34
f 56/93/35 58/94/35 68/95/35
f 75/96/36 61/97/36 60/98/36
f 62/65/37 64/99/37 63/100/37
f 44/101/38 45/75/38 43/74/38 41/82/38
f 73/83/39 43/74/39 49/77/39 74/87/39
f 48/78/40 49/77/40 52/76/40 50/79/40
f 51/89/41 52/76/41 45/75/41 67/85/41
f 74/87/42 48/78/42 61/81/42 75/96/42
f 60/102/43 61/81/43 64/80/43 62/103/43
f 63/104/44 64/80/44 50/79/44 51/89/44
f 75/96/45 60/64/45 55/67/45 76/105/45
f 54/106/46 55/91/46 58/94/46 56/93/46
f 68/73/47 58/66/47 62/65/47 63/72/47
f 76/105/48 54/106/48 41/82/48 73/83/48
f 67/85/49 44/101/49 56/93/49 68/95/49
f 54/106/50 56/93/50 44/101/50 41/82/50
f 39/59/2 66/62/2 65/107/2 37/56/2
f 46/108/2 67/109/2 68/73/2 57/110/2
f 37/56/2 65/107/2 67/109/2 46/108/2
f 57/110/2 68/73/2 66/62/2 39/59/2
f 70/58/2 69/57/2 71/111/2 72/112/2
f 39/59/4 70/58/4 72/112/4 57/110/4
f 57/110/26 72/112/26 71/111/26 46/108/26
f 46/108/5 71/111/5 69/57/5 37/56/5
f 75/96/3 79/113/3 78/114/3 74/87/3
f 47/71/2 82/115/2 83/116/2 59/68/2
f 76/105/5 80/117/5 79/113/5 75/96/5
f 53/69/3 84/118/3 81/119/3 42/70/3
f 81/119/1 77/120/1 78/114/1 82/115/1
f 82/115/1 78/114/1 79/113/1 83/116/1
f 83/116/1 79/113/1 80/117/1 84/118/1
f 84/118/1 80/117/1 77/120/1 81/119/1
f 59/68/4 83/116/4 84/118/4 53/69/4
f 74/87/4 78/114/4 77/120/4 73/83/4
f 42/70/5 81/119/5 82/115/5 47/71/5
f 73/83/2 77/120/2 80/117/2 76/105/2
