# Blender v2.91.2 OBJ File: 'bppedestal.blend'
# www.blender.org
mtllib spike.mtl
o Cube
v 0.500000 0.500000 -0.500000
v 0.500000 -0.500000 -0.500000
v 0.500000 0.500000 0.500000
v 0.500000 -0.500000 0.500000
v -0.500000 0.500000 -0.500000
v -0.500000 -0.500000 -0.500000
v -0.500000 0.500000 0.500000
v -0.500000 -0.500000 0.500000
v 0.018578 1.173538 0.018578
v -0.018578 1.173538 0.018578
v 0.018578 1.173538 -0.018578
v -0.018578 1.173538 -0.018578
vt 0.000000 1.000000
vt 1.000000 1.000000
vt 1.000000 1.000000
vt 0.000000 1.000000
vt 1.000000 0.000000
vt 1.000000 1.000000
vt 0.000000 1.000000
vt 0.000000 0.000000
vt 1.000000 0.000000
vt 1.000000 1.000000
vt 0.000000 1.000000
vt 0.000000 0.000000
vt 1.000000 0.000000
vt 1.000000 1.000000
vt 0.000000 1.000000
vt 1.000000 1.000000
vt 0.000000 1.000000
vt 0.000000 0.000000
vt 1.000000 0.000000
vt 0.000000 0.000000
vt 0.000000 0.000000
vt 1.000000 0.000000
vt 1.000000 1.000000
vt 0.000000 1.000000
vt 1.000000 1.000000
vt 0.000000 1.000000
vt 0.000000 1.000000
vt 1.000000 1.000000
vn 0.0000 0.5815 -0.8135
vn 0.0000 0.0000 1.0000
vn -1.0000 0.0000 0.0000
vn 0.0000 -1.0000 0.0000
vn 1.0000 0.0000 0.0000
vn 0.0000 0.0000 -1.0000
vn 0.0000 1.0000 0.0000
vn 0.0000 0.5815 0.8135
vn -0.8135 0.5815 0.0000
vn 0.8135 0.5815 0.0000
usemtl Material
s off
f 1/1/1 5/2/1 12/3/1 11/4/1
f 4/5/2 3/6/2 7/7/2 8/8/2
f 8/9/3 7/10/3 5/11/3 6/12/3
f 6/12/4 2/13/4 4/14/4 8/15/4
f 2/13/5 1/16/5 3/17/5 4/18/5
f 6/19/6 5/2/6 1/1/6 2/20/6
f 11/21/7 12/22/7 10/23/7 9/24/7
f 7/7/8 3/6/8 9/25/8 10/26/8
f 5/11/9 7/10/9 10/23/9 12/27/9
f 3/17/10 1/16/10 11/28/10 9/24/10
