# Blender v2.82 (sub 7) OBJ File: 'bppedestal.blend'
# www.blender.org
mtllib bryo1.mtl
o Plane
v -0.499898 0.491588 0.499180
v 0.498462 0.491588 0.499180
v 0.498462 0.491588 -0.499180
v -0.499898 0.491588 0.000000
v 0.498462 0.491588 0.000000
v -0.000718 0.491588 0.499180
v -0.000718 0.491588 -0.499180
v -0.000718 0.491588 0.000000
v 0.498462 0.491588 -0.249590
v -0.499898 0.491588 -0.249590
v -0.000718 0.491588 -0.249590
v -0.499898 0.491588 0.249590
v 0.498462 0.491588 0.249590
v -0.000718 0.491588 0.249590
v 0.248872 0.491588 0.499180
v 0.248872 0.491588 -0.499180
v 0.248872 0.491588 0.000000
v 0.248872 0.491588 -0.249590
v 0.248872 0.491588 0.249590
v -0.250308 0.491588 -0.499180
v -0.250308 0.491588 0.000000
v -0.250308 0.491588 0.499180
v -0.250308 0.491588 -0.249590
v -0.250308 0.491588 0.249590
v 0.498462 0.636607 -0.249590
v 0.498462 0.636607 -0.499180
v 0.248872 0.636607 -0.499180
v 0.248872 0.636607 -0.249590
v -0.000718 0.563626 -0.249590
v -0.000718 0.563626 -0.499180
v -0.250308 0.563626 -0.499180
v -0.250308 0.563626 -0.249590
v -0.000718 0.717706 0.249590
v -0.000718 0.717706 0.000000
v -0.250308 0.717706 0.000000
v -0.250308 0.717706 0.249590
v 0.248872 0.616306 0.000000
v -0.000718 0.616306 0.000000
v -0.000718 0.616306 0.249590
v 0.248872 0.616306 0.249590
v 0.498462 0.560667 0.249590
v 0.498462 0.560667 0.000000
v 0.248872 0.560667 0.000000
v 0.248872 0.560667 0.249590
v 0.248872 0.529553 0.499180
v 0.498462 0.529553 0.499180
v 0.498462 0.529553 0.249590
v 0.248872 0.529553 0.249590
v -0.250308 0.666433 0.499180
v -0.000718 0.666433 0.499180
v -0.000718 0.666433 0.249590
v -0.250308 0.666433 0.249590
v -0.499898 0.633428 0.249590
v -0.499898 0.633428 0.499180
v -0.250308 0.633428 0.249590
v -0.250308 0.633428 0.499180
v -0.499898 0.541064 -0.249590
v -0.499898 0.541064 0.000000
v -0.250308 0.541064 0.000000
v -0.250308 0.541064 -0.249590
v 0.248872 0.581094 0.000000
v -0.000718 0.581094 0.000000
v -0.000718 0.581094 -0.249590
v 0.248872 0.581094 -0.249590
v -0.499540 -0.505688 0.499180
v -0.499540 0.492672 0.499180
v -0.499540 -0.505688 -0.499180
v -0.499540 0.492672 -0.499180
v 0.498821 -0.505688 0.499180
v 0.498821 0.492672 0.499180
v 0.498821 -0.505688 -0.499180
v 0.498821 0.492672 -0.499180
vt 0.750000 0.750000
vt 0.750000 1.000000
vt 1.000000 1.000000
vt 1.000000 0.750000
vt 0.000000 0.562500
vt 0.000000 0.562500
vt 0.000000 0.562500
vt 0.000000 0.562500
vt 0.250000 0.750000
vt 0.500000 0.750000
vt 0.500000 0.750000
vt 0.250000 0.750000
vt 0.250000 0.750000
vt 0.250000 1.000000
vt 0.500000 1.000000
vt 0.500000 0.750000
vt 0.250000 0.750000
vt 0.500000 0.750000
vt 0.000000 0.562500
vt 0.000000 0.562500
vt 0.000000 0.562500
vt 0.000000 0.562500
vt 0.500000 1.000000
vt 0.750000 1.000000
vt 0.750000 1.000000
vt 0.500000 1.000000
vt 0.500000 1.000000
vt 0.750000 1.000000
vt 0.000000 0.562500
vt 0.000000 0.562500
vt 0.000000 0.562500
vt 0.000000 0.562500
vt 0.000000 0.500000
vt 0.000000 0.750000
vt 0.250000 0.500000
vt 0.750000 0.750000
vt 1.000000 0.750000
vt 1.000000 1.000000
vt 0.750000 1.000000
vt 0.250000 0.750000
vt 0.500000 0.750000
vt 0.500000 1.000000
vt 0.250000 1.000000
vt 0.000000 0.750000
vt 0.250000 0.750000
vt 0.250000 1.000000
vt 0.000000 1.000000
vt 0.500000 1.000000
vt 0.000000 0.562500
vt 0.000000 0.562500
vt 0.000000 0.562500
vt 0.000000 0.562500
vt 0.000000 0.562500
vt 0.000000 0.562500
vt 0.500000 0.750000
vt 0.750000 0.750000
vt 0.000000 0.562500
vt 0.000000 0.562500
vt 0.000000 0.562500
vt 0.000000 0.562500
vt 0.750000 0.750000
vt 0.750000 0.750000
vt 1.000000 0.750000
vt 1.000000 1.000000
vt 0.750000 1.000000
vt 0.000000 0.562500
vt 0.000000 0.562500
vt 1.000000 0.750000
vt 0.750000 0.562500
vt 1.000000 0.562500
vt 1.000000 0.750000
vt 0.750000 0.750000
vt 0.000000 0.562500
vt 0.000000 0.562500
vt 0.250000 0.562500
vt 0.500000 0.562500
vt 0.000000 0.562500
vt 0.000000 0.562500
vt 0.000000 0.562500
vt 0.250000 0.562500
vt 0.000000 0.562500
vt 0.250000 0.562500
vt 0.250000 0.750000
vt -0.000000 0.750000
vt 0.000000 0.562500
vt 0.000000 0.562500
vt 0.000000 0.562500
vt -0.000000 1.000000
vt 0.250000 1.000000
vt 0.250000 0.750000
vt 0.000000 0.750000
vt -0.000000 1.000000
vt 0.250000 1.000000
vt 0.750000 0.750000
vt 0.500000 0.750000
vt 0.000000 0.562500
vt 0.000000 0.562500
vt 0.000000 0.562500
vt 0.000000 0.562500
vt 0.000000 0.562500
vt 0.000000 0.562500
vt 0.000000 0.000000
vt 1.000000 0.000000
vt 1.000000 0.500000
vt 0.000000 0.500000
vt 0.375000 0.250000
vt 0.625000 0.250000
vt 0.625000 0.000000
vt 0.375000 0.000000
vt 0.625000 0.250000
vt 0.375000 0.250000
vt 0.625000 0.500000
vt 0.375000 0.500000
vt 0.125000 0.000000
vt 0.125000 0.250000
vt 0.875000 0.000000
vt 0.875000 0.250000
vn 0.0000 -1.0000 0.0000
vn 0.0000 0.0000 -1.0000
vn 0.0000 0.0000 1.0000
vn 0.0000 1.0000 0.0000
vn 1.0000 0.0000 0.0000
vn -1.0000 0.0000 0.0000
usemtl Material.001
s off
f 18/1/1 16/2/1 3/3/1 9/4/1
f 5/5/2 17/6/2 43/7/2 42/8/2
f 24/9/3 14/10/3 33/11/3 36/12/3
f 23/13/1 20/14/1 7/15/1 11/16/1
f 14/10/2 24/9/2 52/17/2 51/18/2
f 15/19/3 2/20/3 46/21/3 45/22/3
f 8/23/3 17/24/3 61/25/3 62/26/3
f 17/24/2 8/23/2 38/27/2 37/28/2
f 1/29/3 22/30/3 56/31/3 54/32/3
f 4/33/1 10/34/1 23/13/1 21/35/1
f 28/36/4 25/37/4 26/38/4 27/39/4
f 18/1/3 9/4/3 25/37/3 28/36/3
f 3/3/2 16/2/2 27/39/2 26/38/2
f 9/4/5 3/3/5 26/38/5 25/37/5
f 16/2/6 18/1/6 28/36/6 27/39/6
f 32/40/4 29/41/4 30/42/4 31/43/4
f 7/15/2 20/14/2 31/43/2 30/42/2
f 20/14/6 23/13/6 32/40/6 31/43/6
f 23/13/3 11/16/3 29/41/3 32/40/3
f 11/16/5 7/15/5 30/42/5 29/41/5
f 36/44/4 33/45/4 34/46/4 35/47/4
f 14/10/5 8/23/5 34/48/5 33/11/5
f 8/49/2 21/50/2 35/51/2 34/52/2
f 21/50/6 24/53/6 36/54/6 35/51/6
f 39/55/4 40/56/4 37/28/4 38/27/4
f 14/57/3 19/58/3 40/59/3 39/60/3
f 19/61/5 17/24/5 37/28/5 40/56/5
f 8/23/6 14/10/6 39/55/6 38/27/6
f 44/62/4 41/63/4 42/64/4 43/65/4
f 17/24/6 19/61/6 44/62/6 43/65/6
f 13/66/5 5/5/5 42/8/5 41/67/5
f 19/61/3 13/68/3 41/63/3 44/62/3
f 45/69/4 46/70/4 47/71/4 48/72/4
f 19/58/6 15/19/6 45/22/6 48/73/6
f 2/20/5 13/66/5 47/74/5 46/21/5
f 13/68/2 19/61/2 48/72/2 47/71/2
f 49/75/4 50/76/4 51/18/4 52/17/4
f 6/77/5 14/57/5 51/78/5 50/79/5
f 24/9/6 22/80/6 49/75/6 52/17/6
f 22/30/3 6/77/3 50/79/3 49/81/3
f 54/32/4 56/82/4 55/83/4 53/84/4
f 22/80/5 24/9/5 55/83/5 56/82/5
f 24/53/2 12/85/2 53/86/2 55/87/2
f 12/85/6 1/29/6 54/32/6 53/86/6
f 58/88/4 59/89/4 60/90/4 57/91/4
f 4/92/3 21/93/3 59/89/3 58/88/3
f 10/34/6 4/92/6 58/88/6 57/91/6
f 23/13/2 10/34/2 57/91/2 60/90/2
f 21/93/5 23/13/5 60/90/5 59/89/5
f 62/26/4 61/25/4 64/94/4 63/95/4
f 18/96/2 11/97/2 63/98/2 64/99/2
f 11/97/6 8/49/6 62/100/6 63/98/6
f 17/6/5 18/96/5 64/99/5 61/101/5
f 65/102/6 66/103/6 68/104/6 67/105/6
f 67/106/2 68/107/2 72/108/2 71/109/2
f 71/109/5 72/108/5 70/110/5 69/111/5
f 69/111/3 70/110/3 66/112/3 65/113/3
f 67/114/1 71/109/1 69/111/1 65/115/1
f 72/108/4 68/116/4 66/117/4 70/110/4
